<svg width="231" height="270" viewBox="0 0 231 270" fill="none" xmlns="http://www.w3.org/2000/svg">
<path d="M220.717 183.813C210.237 173.633 196.027 174.273 182.297 174.893C176.357 175.163 170.217 175.433 164.577 174.773C151.757 174.003 139.907 169.173 130.177 160.783C166.157 152.043 199.287 138.443 208.697 134.433C209.617 134.043 210.667 133.913 211.737 134.063C214.047 134.393 216.587 134.323 219.277 133.853C221.467 133.473 223.337 132.123 224.397 130.143C225.467 128.153 225.557 125.823 224.647 123.773C223.107 120.293 221.147 117.093 219.767 115.023C219.047 113.943 218.737 112.613 218.897 111.283C223.527 71.0931 204.337 29.3431 200.437 21.3831C199.987 20.4631 199.817 19.4031 199.937 18.3031C200.427 13.8031 199.387 8.7631 198.427 5.3231C197.457 1.8431 194.137 -0.376903 190.527 0.0530973C184.447 0.783097 180.077 3.0831 178.007 4.3831C177.067 4.9831 175.957 5.2731 174.817 5.2131C100.657 1.8531 42.9867 33.6831 32.1767 40.0931C31.4767 40.5131 30.7367 40.7531 29.9867 40.8231C26.7967 41.1131 23.5067 41.8231 20.2267 42.9131C16.4567 44.1731 14.4167 48.1631 15.5667 52.0031C16.6767 55.6931 18.4567 59.2131 19.7567 61.5131C20.3167 62.5131 20.5367 63.6731 20.4067 64.8731C18.5467 81.3131 21.2567 99.9331 28.4567 120.223C23.9067 122.563 19.5667 125.333 15.5567 128.503C9.36668 133.553 4.55668 140.013 0.166682 146.203C-0.123318 146.613 -0.0233178 147.173 0.376682 147.453C0.536682 147.563 0.716682 147.623 0.896682 147.623C1.17668 147.623 1.45668 147.493 1.62668 147.243C5.94668 141.153 10.6667 134.803 16.6767 129.903C20.7167 126.713 25.1167 123.913 29.7367 121.573L29.9567 121.463C46.3767 113.223 63.8967 111.713 78.0367 117.353C93.4967 123.253 104.647 135.783 115.427 147.903C118.257 151.083 121.177 154.363 124.107 157.453C125.167 158.583 126.317 159.713 127.617 160.903C127.637 160.923 127.637 160.943 127.657 160.963C137.927 170.333 150.657 175.713 164.397 176.543C170.137 177.213 176.347 176.943 182.357 176.673C195.717 176.073 209.527 175.453 219.437 185.083C228.787 194.523 229.457 209.003 228.377 219.493C227.997 223.623 227.277 227.863 226.577 231.963C225.557 237.963 224.497 244.163 224.477 250.183C224.407 256.283 225.337 262.363 226.377 268.573C226.447 269.013 226.837 269.323 227.267 269.323C227.317 269.323 227.367 269.323 227.417 269.313C227.907 269.233 228.237 268.763 228.157 268.273C227.127 262.143 226.207 256.153 226.277 250.193C226.307 244.313 227.347 238.183 228.357 232.263C229.057 228.133 229.787 223.853 230.177 219.673C231.297 208.803 230.577 193.753 220.717 183.803V183.813ZM125.427 156.243C122.507 153.173 119.597 149.903 116.777 146.733C105.847 134.453 94.5567 121.753 78.6967 115.703C72.8467 113.373 66.4467 112.223 59.7867 112.223C50.1167 112.223 39.9067 114.653 30.0667 119.433C23.0167 99.4831 20.3667 81.2131 22.1967 65.1031C22.3767 63.5231 22.0767 61.9831 21.3267 60.6531C20.2967 58.8331 18.4067 55.2231 17.2867 51.5031C16.4167 48.6031 17.9567 45.5831 20.7867 44.6331C23.9367 43.5831 27.0867 42.9031 30.1367 42.6231C31.1467 42.5331 32.1367 42.2031 33.0767 41.6431C43.8267 35.2731 101.127 3.6831 174.727 7.0031C176.247 7.0731 177.707 6.6831 178.957 5.8931C180.887 4.6731 184.997 2.5131 190.727 1.8231C193.397 1.5031 195.957 3.2031 196.677 5.7931C197.597 9.0831 198.587 13.8831 198.137 18.0931C197.977 19.5331 198.217 20.9331 198.817 22.1631C202.677 30.0431 221.667 71.3831 217.097 111.073C216.897 112.833 217.307 114.583 218.257 116.013C219.597 118.023 221.497 121.133 222.987 124.493C223.667 126.043 223.607 127.783 222.797 129.293C221.997 130.783 220.597 131.793 218.957 132.083C216.457 132.513 214.117 132.583 211.977 132.283C210.577 132.093 209.197 132.253 207.977 132.773C198.497 136.813 164.847 150.633 128.537 159.323C127.397 158.263 126.377 157.253 125.417 156.243H125.427Z" fill="#FAFAFA"/>
</svg>
