<svg width="242" height="145" viewBox="0 0 242 145" fill="none" xmlns="http://www.w3.org/2000/svg">
<g clip-path="url(#clip0_113_370)">
<path d="M107.261 74.4036C106.727 74.4289 106.2 74.4149 105.662 74.3625C100.535 73.8747 97.42 70.0187 97.2951 69.8493C96.9949 69.4738 97.0566 68.9254 97.432 68.6252C97.8074 68.3249 98.3558 68.3866 98.6658 68.7615C98.6968 68.799 101.479 72.213 105.852 72.6196C108.905 72.9036 112.042 71.6836 115.178 68.9927C115.543 68.6735 116.1 68.7153 116.41 69.0902C116.729 69.455 116.687 70.0122 116.312 70.3222C113.317 72.8895 110.284 74.2605 107.252 74.4041L107.261 74.4036Z" fill="currentColor"/>
<path d="M145.444 76.2095C144.141 76.2712 142.878 76.1264 141.663 75.7651C136.723 74.3138 134.402 69.9332 134.305 69.7429C134.081 69.3152 134.251 68.7909 134.678 68.5661C135.106 68.3413 135.64 68.5108 135.855 68.939C135.876 68.9769 137.96 72.8623 142.178 74.0945C145.121 74.9487 148.434 74.3535 152.029 72.3033C152.446 72.0595 152.979 72.2096 153.223 72.6266C153.466 73.0437 153.316 73.5768 152.899 73.8206C150.31 75.2972 147.815 76.0972 145.453 76.209L145.444 76.2095Z" fill="currentColor"/>
<path d="M125.079 77.3199C125.718 77.2897 126.211 76.7473 126.181 76.1086C126.151 75.4698 125.608 74.9765 124.97 75.0068C124.331 75.037 123.838 75.5793 123.868 76.2181C123.898 76.8569 124.44 77.3502 125.079 77.3199Z" fill="currentColor"/>
<path d="M241.606 131.952C232.423 125.023 223.366 118.886 214.463 113.541C222.525 79.534 214.969 44.0063 212.444 33.8881C212.204 32.9254 212.251 31.8711 212.593 30.8517C213.973 26.6756 214.008 21.6671 213.796 18.1997C213.58 14.6837 210.867 11.8996 207.355 11.5789C201.417 11.0418 196.793 12.3323 194.562 13.1588C193.538 13.5385 192.429 13.5812 191.355 13.3106C121.504 -4.96763 60.1377 13.5724 48.5461 17.4819C47.7889 17.7418 47.0423 17.8161 46.3176 17.7335C43.222 17.3638 39.949 17.363 36.6065 17.7453C32.7692 18.1705 30.0072 21.5548 30.3278 25.4457C30.6309 29.1718 31.6157 32.8949 32.3749 35.3527C32.7074 36.4084 32.6844 37.5687 32.3088 38.6872C23.8674 63.8678 27.5706 92.4963 32.2591 112.311C21.8064 118.057 12.9907 124.017 5.97537 129.326C5.58978 129.617 5.51836 130.166 5.80936 130.552C5.98609 130.787 6.27439 130.91 6.54652 130.897C6.71175 130.889 6.88439 130.832 7.03484 130.718C24.5163 117.48 53.211 100.156 90.8681 92.5187C92.5261 96.6775 94.3477 98.7342 96.272 98.6431C96.2915 98.6422 96.3109 98.6413 96.3304 98.6403C98.4468 98.4914 100.067 95.8821 101.292 90.6906C112.359 89.0658 123.674 88.3742 134.939 88.6687C138.811 88.7679 142.8 89.0952 146.799 89.6169C147.008 94.8477 148.188 97.753 150.315 98.2465C150.571 98.3026 150.816 98.3299 151.069 98.318C153.567 98.1997 155.986 94.783 157.723 91.5544C183.455 97.2519 211.317 111.304 240.561 133.346C240.733 133.474 240.93 133.533 241.125 133.524C241.377 133.512 241.625 133.393 241.781 133.181C242.074 132.797 241.99 132.246 241.606 131.952ZM33.9711 39.2319C34.4662 37.7571 34.4916 36.2363 34.0546 34.825C33.4461 32.8765 32.3886 29.0594 32.074 25.2948C31.8374 22.3545 33.9082 19.8018 36.8055 19.4795C40.0128 19.1231 43.1493 19.1206 46.1075 19.4676C47.0872 19.5868 48.1045 19.4705 49.1019 19.1407C60.6172 15.2641 121.542 -3.14785 190.918 14.997C192.339 15.3681 193.816 15.2981 195.175 14.7954C197.262 14.0245 201.608 12.8057 207.204 13.3199C209.816 13.5567 211.895 15.6986 212.057 18.3015C212.262 21.6134 212.235 26.3878 210.94 30.2968C210.496 31.6328 210.435 33.0189 210.759 34.3088C212.528 41.4139 220.857 78.2492 212.889 112.613C203.108 106.822 193.509 101.997 184.131 98.1551C180.177 86.6338 173.937 73.9641 164.152 64.404C165.307 63.0733 168.515 59.853 173.501 58.5941C173.973 58.4743 174.252 58.0033 174.133 57.5316C174.013 57.06 173.542 56.7803 173.07 56.9001C167.641 58.2676 164.207 61.6642 162.878 63.2078C154.21 55.2215 142.891 49.6695 128.115 49.2782C127.842 49.2716 127.579 49.2743 127.307 49.2775L127.459 42.2081C128.071 42.3739 128.728 42.6643 129.504 43.0172C130.121 43.2997 130.759 43.6006 131.402 43.8137C131.897 43.9851 132.339 44.0616 132.728 44.0432C133.175 44.022 133.539 43.8781 133.827 43.6015C134.788 42.6891 134.298 40.9881 133.811 39.3357C133.649 38.7979 133.474 38.1925 133.465 37.9981C133.492 37.5488 133.918 37.2948 134.841 36.8322C135.422 36.5417 136.012 36.2508 136.476 35.7613C137.216 34.9275 137.193 34.237 137.036 33.806C136.586 32.5318 134.623 32.2254 132.905 31.9463C132.395 31.8633 131.767 31.7664 131.607 31.6863C131.019 31.4025 130.76 30.6549 130.465 29.7825C130.251 29.1595 130.036 28.5268 129.69 28.0268C129.246 27.2784 128.702 26.895 128.069 26.9055C126.881 26.9033 126.152 28.1846 125.422 29.4271C125.17 29.8579 124.827 30.4488 124.649 30.5936L124.547 30.6959C123.91 31.4371 122.6 31.5478 121.338 31.6466C120.853 31.689 120.388 31.7305 119.933 31.8008C119.779 31.8276 119.565 31.8377 119.332 31.8584C118.361 31.9239 117.157 32.0101 116.742 32.9065C116.583 33.2452 116.502 33.814 117.013 34.5204C117.389 35.0578 117.977 35.5365 118.544 35.9967C119.173 36.5124 119.882 37.0828 120.05 37.5618L120.052 37.591C120.062 38.0191 119.84 38.4777 119.582 38.9964C119.387 39.3953 119.182 39.8044 119.075 40.2088C118.565 41.587 118.11 43.284 119.095 44.1335C120.253 45.1307 122.256 44.0325 124.203 42.9662L124.886 42.5929C125.17 42.4042 125.446 42.2839 125.715 42.203L125.564 49.2918C108.648 49.3817 94.3945 54.8784 83.1 65.6802C82.0949 63.5848 79.7343 59.1962 76.7789 57.2614C76.3768 56.9979 75.8366 57.1112 75.5635 57.5137C75.3 57.9159 75.4133 58.456 75.8159 58.7291C78.6713 60.6103 81.0623 65.4357 81.7793 66.9993C81.3052 67.4796 80.8215 67.9603 80.3581 68.4595C79.9872 68.857 79.6368 69.273 79.2761 69.6797C77.0599 67.515 69.5771 60.8948 59.8722 60.0101C59.383 59.9651 58.9618 60.326 58.9163 60.8054C58.8708 61.2849 59.2321 61.7159 59.7116 61.7614C68.8685 62.5941 76.1708 69.1059 78.1317 71.0197C69.7999 81.0285 65.5502 92.0811 63.6626 98.2975C52.6541 102.179 42.6909 106.742 33.8667 111.495C29.2868 91.9182 25.7381 63.8766 33.9835 39.2897L33.9711 39.2319ZM120.247 42.7444C120.229 42.5602 120.242 42.0141 120.716 40.7156C120.808 40.3995 120.968 40.0802 121.137 39.7313C121.456 39.0733 121.83 38.325 121.788 37.4309L121.732 37.0731C121.441 36.0738 120.529 35.328 119.638 34.6104C119.252 34.2877 118.847 33.966 118.58 33.6669C118.861 33.6244 119.22 33.5977 119.433 33.5778C119.744 33.5631 120.015 33.5308 120.199 33.5026C120.595 33.4351 121.022 33.4051 121.459 33.365C122.982 33.2344 124.709 33.0942 125.81 31.8537C126.192 31.5044 126.526 30.9334 126.904 30.2823C127.183 29.8015 127.688 28.9399 128.007 28.6813C128.048 28.728 128.111 28.8127 128.185 28.9456C128.426 29.3043 128.596 29.8028 128.777 30.33C129.149 31.4131 129.568 32.6498 130.844 33.2518C131.232 33.4282 131.841 33.526 132.606 33.6456C133.313 33.7583 134.903 34.0142 135.328 34.3448C135.301 34.3947 135.255 34.4651 135.172 34.5567C134.94 34.8014 134.483 35.0276 134.045 35.2432C133.094 35.7168 131.78 36.3635 131.7 37.9551C131.723 38.441 131.898 39.0659 132.118 39.7958C132.315 40.4586 132.71 41.8036 132.605 42.2664C132.508 42.271 132.312 42.2413 131.955 42.1218C131.391 41.9342 130.824 41.6786 130.226 41.3952C128.981 40.821 127.636 40.1931 126.217 40.2603C125.479 40.2952 124.72 40.5163 123.955 41.0395L123.329 41.3809C122.503 41.8291 120.802 42.7376 120.237 42.7352L120.247 42.7444ZM150.702 96.543C149.717 96.3169 148.632 94.1668 148.515 88.8246C148.513 88.7857 148.493 88.7575 148.491 88.7186C148.488 88.6603 148.475 88.6025 148.454 88.5548C148.431 88.4974 148.41 88.4497 148.378 88.4025C148.347 88.3553 148.326 88.3173 148.295 88.2798C148.253 88.2331 148.213 88.196 148.162 88.1595C148.122 88.1321 148.082 88.1048 148.041 88.0775C147.982 88.0511 147.923 88.0344 147.863 88.0178C147.834 88.0191 147.804 87.9914 147.774 87.983C143.46 87.3886 139.167 87.0366 134.993 86.9323C123.436 86.6321 111.81 87.3482 100.455 89.0548C100.455 89.0548 100.445 89.0553 100.435 89.0557C100.377 89.0585 100.33 89.0899 100.272 89.1121C100.215 89.1343 100.157 89.1468 100.11 89.1783C100.082 89.1991 100.064 89.2292 100.035 89.25C99.9696 89.3018 99.9131 89.3435 99.8678 89.4138C99.8497 89.4439 99.8418 89.4832 99.8238 89.5133C99.7881 89.5832 99.7427 89.6535 99.7265 89.7224C99.7265 89.7224 99.7265 89.7224 99.727 89.7322C98.5797 94.9199 97.1607 96.8379 96.2091 96.9024C95.3834 96.9513 93.8441 95.5046 92.2379 91.207C92.2268 91.1783 92.2064 91.1598 92.1851 91.1218C92.1532 91.0649 92.1213 91.008 92.0801 90.9612C92.0491 90.9237 92.0186 90.8959 91.988 90.8682C91.9371 90.8219 91.8867 90.7853 91.827 90.7589C91.7872 90.7413 91.7474 90.7237 91.6979 90.7066C91.6387 90.6899 91.5794 90.6732 91.5109 90.6667C91.4526 90.6695 91.404 90.6718 91.3457 90.6745C91.3068 90.6764 91.2772 90.668 91.2388 90.6796C82.2066 92.4807 73.6875 94.8323 65.7024 97.558C67.9007 90.7035 72.1219 80.6945 79.7028 71.6953C79.7694 71.6629 79.8361 71.6306 79.8921 71.5792C80.0041 71.4765 80.0754 71.3367 80.1176 71.1984C81.0685 70.0916 82.0791 69.0112 83.13 67.9581C83.13 67.9581 83.1299 67.9581 83.1397 67.9577C83.3688 67.8591 83.5354 67.6759 83.6133 67.4677C93.3209 57.9197 107.502 50.488 128.053 51.0442C159.029 51.8763 174.424 76.2301 181.958 97.3034C173.599 93.9976 165.414 91.463 157.432 89.7369C157.413 89.7378 157.393 89.7387 157.374 89.7396C157.315 89.7327 157.257 89.7354 157.199 89.7382C157.14 89.741 157.092 89.7433 157.034 89.7557C156.986 89.7678 156.938 89.7895 156.881 89.8117C156.823 89.8339 156.776 89.8556 156.729 89.8968C156.691 89.9278 156.654 89.9685 156.617 89.9995C156.57 90.0407 156.533 90.0911 156.497 90.1416C156.488 90.1615 156.469 90.1721 156.46 90.1823C153.828 95.2845 151.699 96.8075 150.684 96.5731L150.702 96.543Z" fill="currentColor"/>
</g>
<defs>
<clipPath id="clip0_113_370">
<rect width="235.943" height="133.642" fill="white" transform="translate(0 11.16) rotate(-2.71107)"/>
</clipPath>
</defs>
</svg>
