<svg width="242" height="137" viewBox="0 0 242 137" fill="none" xmlns="http://www.w3.org/2000/svg">
<path d="M241.684 135.414C232.592 127.863 223.609 121.139 214.767 115.234C224.677 80.7989 218.659 44.0597 216.563 33.5656C216.364 32.568 216.463 31.4907 216.863 30.4632C218.479 26.2536 218.759 21.1263 218.709 17.5651C218.659 13.954 216.014 10.9714 212.431 10.4726C206.373 9.63471 201.573 10.732 199.247 11.4702C198.189 11.8093 197.051 11.7994 195.954 11.4702C125.262 -10.6252 61.4877 5.38521 49.4214 8.8267C48.6429 9.04616 47.8644 9.09604 47.1259 8.97633C43.9721 8.44764 40.6187 8.28803 37.1754 8.51747C33.2232 8.76685 30.2291 12.0986 30.3688 16.0987C30.5085 20.1388 31.4467 24.2486 31.9856 26.3434C32.275 27.4407 32.1952 28.6278 31.7561 29.755C21.8954 55.1024 24.2907 84.5795 28.1232 105.099C17.544 110.296 8.27218 115.912 0.387667 121.309C-0.0215291 121.588 -0.121333 122.147 0.158118 122.556C0.437569 122.965 0.996472 123.064 1.40567 122.785C9.32013 117.369 18.6518 111.722 29.3009 106.515C29.4506 106.485 29.5704 106.416 29.6801 106.336C43.1038 99.8019 58.6133 93.9763 75.9992 90.1358C75.9992 90.1358 76.0092 90.1358 76.0191 90.1358C76.2387 90.1657 76.4283 90.1059 76.598 89.9961C94.0737 86.1856 113.426 84.39 134.474 85.9262C145.273 86.7143 156.421 89.1283 167.869 93.1384C167.899 93.1484 167.929 93.1583 167.959 93.1683C172.979 94.934 178.059 96.9988 183.189 99.373C183.199 99.373 183.219 99.383 183.229 99.3929C187.74 101.488 192.301 103.812 196.892 106.376C196.932 106.396 196.972 106.426 197.012 106.446C202.331 109.418 207.711 112.7 213.14 116.301C213.16 116.321 213.18 116.331 213.2 116.341C222.172 122.306 231.284 129.119 240.526 136.791C240.696 136.93 240.895 137 241.105 137C241.364 137 241.614 136.89 241.794 136.681C242.113 136.302 242.053 135.733 241.674 135.414H241.684ZM33.4328 30.3934C34.0116 28.9071 34.1114 27.3509 33.7322 25.8846C33.2032 23.8695 32.305 19.8993 32.1653 16.0289C32.0655 13.0064 34.311 10.4926 37.2952 10.3031C40.5987 10.0936 43.8124 10.2432 46.8265 10.742C47.8345 10.9116 48.8724 10.8417 49.9104 10.5524C61.8869 7.14087 125.213 -8.75984 195.415 13.1859C196.852 13.6348 198.369 13.6348 199.786 13.1859C201.962 12.4976 206.473 11.4602 212.182 12.2582C214.847 12.6273 216.883 14.9216 216.912 17.595C216.962 20.9966 216.703 25.8846 215.186 29.8248C214.667 31.1715 214.537 32.588 214.807 33.9247C216.274 41.2865 223.02 79.3923 213.2 114.186C208.16 110.875 203.169 107.832 198.219 105.059C198.069 98.8842 196.223 92.5199 193.089 89.1881L190.624 46.5136L183.169 47.2817L185.804 87.7816C185.754 87.8215 185.694 87.8514 185.644 87.9013C183.368 89.9962 182.829 94.7743 182.7 97.1684C178.089 95.0736 173.528 93.2282 169.007 91.6321C168.408 88.3602 164.815 70.8435 154.794 56.7982C156.202 55.1323 161.531 49.1172 167.45 46.4338C167.899 46.2243 168.098 45.6956 167.899 45.2467C167.689 44.7978 167.17 44.5983 166.711 44.7978C160.743 47.5011 155.523 53.1871 153.707 55.3019C148.407 48.3391 141.431 42.4337 132.339 39.86L134.385 32.1192C134.884 32.4084 135.413 32.7775 136.011 33.2264C136.57 33.6454 137.149 34.0743 137.758 34.4235C138.357 34.7826 138.886 34.9621 139.365 34.9621C139.684 34.9621 139.974 34.8823 140.233 34.7227C141.391 34.0045 141.251 32.189 141.111 30.4433C141.061 29.8747 141.012 29.2163 141.041 29.0268C141.161 28.5879 141.65 28.4083 142.668 28.149C143.307 27.9794 143.966 27.8098 144.535 27.4108C145.453 26.7325 145.573 26.0242 145.503 25.5653C145.313 24.1987 143.417 23.4705 141.74 22.8321C141.241 22.6426 140.632 22.4131 140.483 22.3034C139.954 21.8944 139.854 21.0864 139.734 20.1587C139.654 19.4904 139.564 18.8021 139.325 18.2335C139.035 17.3856 138.566 16.8968 137.928 16.7671C136.76 16.5277 135.732 17.6549 134.744 18.7422C134.404 19.1213 133.935 19.64 133.726 19.7497L133.606 19.8295C132.818 20.438 131.48 20.2784 130.183 20.1188C129.694 20.0589 129.205 19.9991 128.736 19.9791C128.576 19.9791 128.356 19.9392 128.127 19.9093C127.139 19.7796 125.911 19.6101 125.312 20.4181C125.083 20.7273 124.883 21.2759 125.252 22.0939C125.512 22.7124 126.001 23.3109 126.48 23.8995C126.999 24.5479 127.588 25.2761 127.658 25.7848V25.8147C127.568 26.2437 127.249 26.6527 126.889 27.1215C126.61 27.4806 126.32 27.8497 126.131 28.2288C125.332 29.5056 124.514 31.1116 125.332 32.169C126.28 33.4159 128.536 32.7276 130.702 32.0693L131.47 31.8299C131.899 31.6503 132.299 31.5805 132.688 31.5905L130.612 39.4411C128.626 38.9822 126.55 38.6829 124.374 38.5632C103.525 37.4161 91.2692 49.9052 84.213 62.7535C83.0453 61.0377 80.5802 57.8655 76.6778 55.1223C76.2687 54.833 75.7097 54.9328 75.4303 55.3418C75.1409 55.7508 75.2407 56.3094 75.6499 56.5887C80.1011 59.711 82.6062 63.5116 83.2549 64.569C82.716 65.6164 82.217 66.6638 81.7379 67.7112C79.4524 65.3171 72.8753 59.4616 62.7053 58.7035C62.2262 58.6735 61.7771 59.0426 61.7472 59.5314C61.7072 60.0302 62.0765 60.4591 62.5755 60.4891C73.035 61.2671 79.5921 67.9905 80.9495 69.5068C77.2268 78.2851 75.7596 86.1058 75.3704 88.43C58.3239 92.2207 43.0738 97.9066 29.8199 104.281C26.0872 84.0209 23.8216 55.1622 33.4527 30.4034L33.4328 30.3934ZM187.55 86.9337L185.075 48.8977L188.937 48.4987L191.203 87.6619C190.444 87.223 189.646 86.9337 188.788 86.8539C188.359 86.814 187.949 86.8539 187.55 86.9337ZM186.861 89.228C187.37 88.7592 187.939 88.5697 188.618 88.6295C192.91 89.0385 195.944 96.6397 196.383 104.031C192.381 101.837 188.408 99.8318 184.466 97.9864C184.516 95.6921 184.995 90.9438 186.861 89.228ZM126.769 31.0418C126.789 30.8523 126.909 30.3136 127.668 29.1066C127.827 28.8073 128.057 28.518 128.296 28.2088C128.756 27.6103 129.285 26.9419 129.434 26.0342L129.454 25.715V25.6651C129.364 24.5977 128.606 23.6601 127.867 22.7523C127.538 22.3533 127.209 21.9343 127.009 21.5852C127.308 21.5952 127.668 21.645 127.887 21.675C128.197 21.7149 128.486 21.7548 128.676 21.7548C129.085 21.7747 129.514 21.8246 129.963 21.8844C131.52 22.074 133.277 22.2934 134.654 21.2759C135.113 21.0066 135.562 20.5078 136.081 19.9293C136.47 19.5003 137.149 18.7522 137.518 18.5527C137.548 18.6125 137.588 18.7023 137.638 18.8519C137.808 19.2609 137.878 19.7996 137.948 20.3682C138.097 21.5353 138.257 22.862 139.405 23.7299C139.764 23.9892 140.353 24.2087 141.091 24.498C141.77 24.7573 143.327 25.3459 143.676 25.7649C143.636 25.8048 143.576 25.8646 143.477 25.9444C143.197 26.1439 142.688 26.2736 142.209 26.4033C141.151 26.6826 139.704 27.0517 139.285 28.6378C139.205 29.1265 139.255 29.7949 139.315 30.573C139.375 31.2812 139.484 32.7177 139.285 33.1466C139.195 33.1267 138.995 33.0668 138.666 32.8673C138.137 32.568 137.628 32.189 137.089 31.78C135.792 30.8124 134.355 29.755 132.628 29.755C132.079 29.755 131.49 29.8647 130.871 30.1141L130.173 30.3236C129.245 30.6029 127.378 31.1715 126.779 31.0318L126.769 31.0418ZM77.2467 88.0111C78.6839 79.931 87.8759 38.3238 124.254 40.3388C155.603 42.0845 165.374 82.5944 167.06 90.9538C155.952 87.1831 145.133 84.8987 134.614 84.1306C113.785 82.6144 94.6026 84.3202 77.2467 88.0111Z" fill="currentColor"/>
<path d="M152.81 72.6207C153.81 72.6207 154.621 71.8101 154.621 70.8103C154.621 69.8105 153.81 69 152.81 69C151.811 69 151 69.8105 151 70.8103C151 71.8101 151.811 72.6207 152.81 72.6207Z" fill="currentColor"/>
</svg>
