<svg width="20" height="20" viewBox="0 0 20 20" fill="none" xmlns="http://www.w3.org/2000/svg">
<path fill-rule="evenodd" clip-rule="evenodd" d="M9.70756 3.27382C8.12981 3.27382 6.85097 4.55212 6.85097 6.12938C6.85097 7.70664 8.12981 8.98494 9.70756 8.98494C11.2842 8.98494 12.5631 7.70676 12.5631 6.12938C12.5631 4.55199 11.2842 3.27382 9.70756 3.27382ZM5.57715 6.12938C5.57715 3.84812 7.42679 2 9.70756 2C11.9874 2 13.8369 3.84824 13.8369 6.12938C13.8369 8.41052 11.9874 10.2588 9.70756 10.2588C7.42679 10.2588 5.57715 8.41064 5.57715 6.12938Z" fill="currentColor"/>
<path fill-rule="evenodd" clip-rule="evenodd" d="M4.95415 15.6037C6.3476 16.3264 7.968 16.6234 9.73272 16.6191H9.73583C11.5005 16.6234 13.1209 16.3264 14.5143 15.6038C13.7055 13.7164 11.9266 12.8053 9.73591 12.8109H9.73265C7.5392 12.8053 5.76315 13.7143 4.95415 15.6037ZM9.73427 11.5371C6.95488 11.5305 4.47104 12.8246 3.56172 15.7001L3.41119 16.1761L3.83747 16.436C5.58838 17.5034 7.62212 17.8978 9.73428 17.8929C11.8464 17.8978 13.8802 17.5034 15.6311 16.436L16.0573 16.1761L15.9068 15.7001C14.9985 12.8274 12.5109 11.5305 9.73427 11.5371Z" fill="currentColor"/>
<path fill-rule="evenodd" clip-rule="evenodd" d="M5.16119 10.8151C3.153 10.81 1.31867 11.7537 0.650498 13.8668L0.499984 14.3428L0.926248 14.6027C1.61179 15.0206 2.35599 15.2948 3.13269 15.4577L3.75605 15.5884L4.01742 14.3416L3.39406 14.211C2.92171 14.1119 2.47546 13.9666 2.05877 13.7685C2.61994 12.6399 3.74634 12.0853 5.15793 12.089L5.79484 12.0906L5.7981 10.8168L5.16119 10.8151Z" fill="currentColor"/>
<path fill-rule="evenodd" clip-rule="evenodd" d="M6.95125 4.60969L6.36315 4.36517C4.79018 3.71115 2.98392 4.45575 2.32953 6.02962C1.67514 7.60349 2.42101 9.40922 3.99398 10.0632C5.29315 10.6034 6.74936 10.1901 7.58664 9.14543L7.98497 8.64845L6.99102 7.85179L6.59269 8.34877C6.10081 8.96246 5.24487 9.2038 4.48303 8.88704C3.55943 8.50302 3.12153 7.44271 3.50573 6.51867C3.88994 5.59462 4.95051 5.15735 5.87411 5.54137L6.46221 5.78589L6.95125 4.60969Z" fill="currentColor"/>
<path fill-rule="evenodd" clip-rule="evenodd" d="M14.3388 10.8151C16.347 10.81 18.1813 11.7537 18.8495 13.8668L19 14.3428L18.5738 14.6027C17.8882 15.0206 17.144 15.2948 16.3673 15.4577L15.744 15.5884L15.4826 14.3416L16.1059 14.211C16.5783 14.1119 17.0245 13.9666 17.4412 13.7685C16.8801 12.6399 15.7537 12.0853 14.3421 12.089L13.7052 12.0906L13.7019 10.8168L14.3388 10.8151Z" fill="currentColor"/>
<path fill-rule="evenodd" clip-rule="evenodd" d="M12.3194 4.78188L12.8826 4.48439C14.1815 3.79822 15.8242 4.11988 16.7576 5.32063C17.8037 6.66637 17.5601 8.60484 16.2152 9.65032C14.8697 10.6962 12.931 10.4541 11.8849 9.10831L11.494 8.60545L12.4997 7.82369L12.8906 8.32655C13.5047 9.11655 14.643 9.259 15.4334 8.64461C16.2231 8.03074 16.3661 6.8925 15.7519 6.10239C15.2046 5.39825 14.2397 5.20811 13.4776 5.61071L12.9144 5.9082L12.3194 4.78188Z" fill="currentColor"/>
</svg>
