<svg width="20" height="20" viewBox="0 0 20 20" fill="none" xmlns="http://www.w3.org/2000/svg">
<path fill-rule="evenodd" clip-rule="evenodd" d="M10.1252 8.18409C9.04016 8.18409 8.16053 9.06372 8.16053 10.1488C8.16053 11.2339 9.04016 12.1135 10.1252 12.1135C11.2103 12.1135 12.09 11.2339 12.09 10.1488C12.09 9.06372 11.2103 8.18409 10.1252 8.18409ZM7.15729 10.1488C7.15729 8.50965 8.48609 7.18085 10.1252 7.18085C11.7644 7.18085 13.0932 8.50965 13.0932 10.1488C13.0932 11.788 11.7644 13.1168 10.1252 13.1168C8.48609 13.1168 7.15729 11.788 7.15729 10.1488Z" fill="currentColor"/>
<path fill-rule="evenodd" clip-rule="evenodd" d="M8.23964 2.00009L10.1256 3.48398L12.0115 2.00009L16.2405 4.44172L15.8985 6.81682L18.1251 7.70758V12.5908L15.8976 13.4819L16.2397 15.8566L12.0107 18.2982L10.1256 16.815L8.24051 18.2982L4.01149 15.8566L4.35346 13.4823L2.125 12.5908V7.70758L4.35266 6.81641L4.01062 4.44172L8.23964 2.00009ZM5.31841 5.0768L5.67929 7.58235L3.32889 8.52262V11.7758L5.68009 12.7164L5.31928 15.2215L8.13661 16.8481L10.1256 15.2831L12.1146 16.8481L14.9319 15.2215L14.571 12.716L16.9212 11.7758V8.52262L14.5718 7.58276L14.9328 5.0768L12.1154 3.45021L10.1256 5.01585L8.13574 3.45021L5.31841 5.0768Z" fill="currentColor"/>
</svg>
