<svg width="36" height="36" viewBox="0 0 36 36" fill="none" xmlns="http://www.w3.org/2000/svg">
<path fill-rule="evenodd" clip-rule="evenodd" d="M17.4736 5.89285C14.6336 5.89285 12.3317 8.19379 12.3317 11.0329C12.3317 13.8719 14.6336 16.1729 17.4736 16.1729C20.3115 16.1729 22.6136 13.8721 22.6136 11.0329C22.6136 8.19356 20.3115 5.89285 17.4736 5.89285ZM10.0388 11.0329C10.0388 6.92658 13.3682 3.59998 17.4736 3.59998C21.5773 3.59998 24.9065 6.92681 24.9065 11.0329C24.9065 15.1389 21.5773 18.4657 17.4736 18.4657C13.3682 18.4657 10.0388 15.1391 10.0388 11.0329Z" fill="#5D5D64"/>
<path fill-rule="evenodd" clip-rule="evenodd" d="M8.91743 28.0867C11.4256 29.3875 14.3424 29.9221 17.5189 29.9143H17.5245C20.7009 29.9221 23.6176 29.3875 26.1257 28.0868C24.6698 24.6896 21.4678 23.0496 17.5246 23.0596H17.5187C13.5705 23.0495 10.3736 24.6857 8.91743 28.0867ZM17.5216 20.7668C12.5187 20.7549 8.04783 23.0844 6.41106 28.2602L6.14011 29.117L6.9074 29.5848C10.059 31.5061 13.7198 32.2161 17.5217 32.2072C21.3235 32.2161 24.9843 31.5061 28.1359 29.5848L28.9032 29.1171L28.6323 28.2603C26.9972 23.0894 22.5197 20.7549 17.5216 20.7668Z" fill="#5D5D64"/>
<path fill-rule="evenodd" clip-rule="evenodd" d="M9.29015 19.4673C5.67541 19.458 2.37362 21.1567 1.17091 24.9603L0.899983 25.817L1.66726 26.2848C2.90123 27.037 4.24079 27.5307 5.63885 27.8238L6.7609 28.059L7.23137 25.815L6.10933 25.5797C5.25909 25.4015 4.45585 25.1399 3.7058 24.7834C4.71591 22.7518 6.74342 21.7536 9.28428 21.7601L10.4307 21.7631L10.4366 19.4702L9.29015 19.4673Z" fill="#5D5D64"/>
<path fill-rule="evenodd" clip-rule="evenodd" d="M12.5123 8.29742L11.4537 7.85728C8.62235 6.68004 5.37109 8.02033 4.19318 10.8533C3.01528 13.6862 4.35784 16.9366 7.18919 18.1138C9.52769 19.0861 12.1489 18.3421 13.656 16.4617L14.373 15.5672L12.5839 14.1332L11.8669 15.0277C10.9815 16.1324 9.44078 16.5668 8.06948 15.9966C6.40699 15.3054 5.61878 13.3968 6.31034 11.7336C7.00191 10.0703 8.91093 9.2832 10.5734 9.97444L11.632 10.4146L12.5123 8.29742Z" fill="#5D5D64"/>
<path fill-rule="evenodd" clip-rule="evenodd" d="M25.8099 19.4673C29.4246 19.458 32.7264 21.1567 33.9291 24.9603L34.2 25.817L33.4327 26.2848C32.1988 27.037 30.8592 27.5307 29.4612 27.8238L28.3391 28.059L27.8686 25.815L28.9907 25.5797C29.8409 25.4015 30.6442 25.1399 31.3942 24.7834C30.3841 22.7518 28.3566 21.7536 25.8157 21.7601L24.6693 21.7631L24.6634 19.4702L25.8099 19.4673Z" fill="#5D5D64"/>
<path fill-rule="evenodd" clip-rule="evenodd" d="M22.1749 8.60739L23.1886 8.07189C25.5266 6.8368 28.4836 7.41579 30.1637 9.57713C32.0466 11.9995 31.6082 15.4887 29.1872 17.3706C26.7654 19.2531 23.2758 18.8175 21.3928 16.395L20.6892 15.4898L22.4995 14.0826L23.2031 14.9878C24.3084 16.4098 26.3574 16.6662 27.7801 15.5603C29.2016 14.4553 29.4589 12.4065 28.3534 10.9843C27.3682 9.71685 25.6314 9.37459 24.2596 10.0993L23.2459 10.6348L22.1749 8.60739Z" fill="#5D5D64"/>
</svg>
