<svg width="36" height="36" viewBox="0 0 36 36" fill="none" xmlns="http://www.w3.org/2000/svg">
<path d="M23.2093 30.0465C23.7487 30.0465 24.186 30.4838 24.186 31.0232C24.186 31.5627 23.7487 32 23.2093 32H12.7907C12.2513 32 11.8139 31.5627 11.8139 31.0232C11.8139 30.4838 12.2513 30.0465 12.7907 30.0465H23.2093ZM27.1163 26.1395C27.6557 26.1395 28.093 26.5768 28.093 27.1163C28.093 27.6557 27.6557 28.093 27.1163 28.093H8.88372C8.34428 28.093 7.90697 27.6557 7.90697 27.1163C7.90697 26.5768 8.34428 26.1395 8.88372 26.1395H27.1163ZM31.0232 22.2325C31.5627 22.2325 32 22.6698 32 23.2093C32 23.7487 31.5627 24.186 31.0232 24.186H4.97674C4.4373 24.186 4 23.7487 4 23.2093C4 22.6698 4.4373 22.2325 4.97674 22.2325H31.0232Z" fill="#5D5D64"/>
<path d="M29.045 22.8186C28.9506 23.0542 28.9517 23.3174 29.048 23.5523C29.1443 23.7871 29.3282 23.9753 29.5609 24.0769C29.7935 24.1785 30.0565 24.1855 30.2943 24.0965C30.532 24.0075 30.7257 23.8294 30.8344 23.6L29.045 22.8186ZM5.1656 23.6C5.27429 23.8294 5.46802 24.0075 5.70575 24.0965C5.94348 24.1855 6.20653 24.1785 6.43917 24.0769C6.67181 23.9753 6.85575 23.7871 6.95204 23.5523C7.04833 23.3174 7.04938 23.0542 6.95499 22.8186L5.1656 23.6ZM7.56448 11.978C7.69435 11.7539 7.72985 11.4873 7.66318 11.237C7.5965 10.9866 7.43311 10.773 7.20894 10.6432C6.98478 10.5133 6.71821 10.4778 6.46787 10.5445C6.21753 10.6111 6.00393 10.7745 5.87406 10.9987L7.56448 11.978ZM10.9987 5.87405C10.8877 5.93835 10.7905 6.02389 10.7125 6.12577C10.6346 6.22766 10.5775 6.3439 10.5445 6.46785C10.5115 6.59181 10.5032 6.72105 10.5201 6.84821C10.5371 6.97536 10.5789 7.09793 10.6432 7.20893C10.7075 7.31992 10.793 7.41716 10.8949 7.4951C10.9968 7.57304 11.113 7.63014 11.237 7.66316C11.3609 7.69617 11.4902 7.70445 11.6173 7.68752C11.7445 7.67058 11.8671 7.62877 11.9781 7.56446L10.9987 5.87405ZM22.5581 20.9302C20.5721 20.9302 18.6674 20.1413 17.2631 18.7369C15.8587 17.3326 15.0698 15.4279 15.0698 13.4419H13.1163C13.1163 15.946 14.1111 18.3476 15.8817 20.1183C17.6524 21.8889 20.054 22.8837 22.5581 22.8837V20.9302ZM28.9721 17.3085C28.3057 18.4137 27.365 19.3279 26.2412 19.9625C25.1174 20.597 23.8487 20.9304 22.5581 20.9302V22.8837C24.1852 22.8842 25.7849 22.4642 27.2019 21.6644C28.6188 20.8647 29.8051 19.7123 30.6456 18.3191L28.9721 17.3085ZM15.0698 13.4419C15.0696 12.1513 15.403 10.8826 16.0375 9.75879C16.6721 8.635 17.5863 7.69429 18.6915 7.02791L17.6809 5.35572C16.2879 6.19609 15.1357 7.38214 14.3359 8.79888C13.5361 10.2156 13.116 11.815 13.1163 13.4419H15.0698ZM30.0465 18C30.0493 19.6583 29.7078 21.2991 29.0437 22.8186L30.8344 23.6C31.5846 21.8835 32 19.9886 32 18H30.0465ZM6.95499 22.8186C6.29087 21.2991 5.9507 19.6583 5.9535 18H4.00002C4.00002 19.9886 4.41546 21.8835 5.1656 23.6L6.95499 22.8186ZM18 5.95349C17.9346 5.95223 17.87 5.938 17.8101 5.91162C17.7502 5.88524 17.6961 5.84724 17.651 5.79981C17.5961 5.74466 17.5589 5.67437 17.5442 5.59795C17.539 5.55758 17.5416 5.44037 17.6809 5.35572L18.6915 7.02791C19.3466 6.632 19.5576 5.9066 19.4808 5.33619C19.4 4.74363 18.9338 4 18 4V5.95349ZM30.6456 18.3191C30.5596 18.4584 30.4424 18.461 30.402 18.4558C30.3256 18.4411 30.2553 18.4039 30.2002 18.349C30.1528 18.3039 30.1148 18.2498 30.0884 18.1899C30.062 18.13 30.0478 18.0654 30.0465 18H32C32 17.0662 31.2564 16.6 30.6638 16.5192C30.0934 16.4424 29.368 16.6534 28.9721 17.3085L30.6456 18.3191ZM5.9535 18C5.9535 15.8043 6.53955 13.7479 7.56448 11.978L5.87406 10.9987C4.64277 13.1263 3.99622 15.5418 4.00002 18H5.9535ZM11.9781 7.56446C13.8081 6.50554 15.8857 5.94974 18 5.95349V4C15.4514 4 13.059 4.68242 10.9987 5.87405L11.9781 7.56446Z" fill="#5D5D64"/>
<path d="M28.2884 5.37658C28.2423 5.25858 28.1618 5.15722 28.0572 5.08577C27.9527 5.01431 27.829 4.97607 27.7023 4.97607C27.5757 4.97607 27.452 5.01431 27.3474 5.08577C27.2428 5.15722 27.1623 5.25858 27.1163 5.37658L26.5563 6.80263C26.5251 6.88339 26.4776 6.95681 26.4166 7.01823C26.3556 7.07965 26.2826 7.12775 26.202 7.15946L24.7812 7.72207C24.6635 7.76894 24.5626 7.85002 24.4916 7.95485C24.4205 8.05968 24.3825 8.18342 24.3825 8.31007C24.3825 8.43672 24.4205 8.56046 24.4916 8.66528C24.5626 8.77011 24.6635 8.8512 24.7812 8.89807L26.202 9.46067C26.2824 9.49224 26.3554 9.54014 26.4164 9.60133C26.4774 9.66252 26.525 9.73569 26.5563 9.81621L27.1163 11.2409C27.3272 11.7749 28.08 11.7749 28.2884 11.2409L28.8484 9.8149C28.8798 9.73426 28.9276 9.66102 28.9888 9.59981C29.05 9.53861 29.1232 9.49079 29.2039 9.45937L30.6247 8.89677C30.7424 8.8499 30.8433 8.76881 30.9144 8.66398C30.9854 8.55916 31.0234 8.43542 31.0234 8.30876C31.0234 8.18211 30.9854 8.05837 30.9144 7.95355C30.8433 7.84872 30.7424 7.76763 30.6247 7.72077L29.2039 7.15816C29.1231 7.1266 29.0498 7.07857 28.9886 7.01714C28.9274 6.95571 28.8796 6.88221 28.8484 6.80132L28.2884 5.37658ZM23.2523 12.96C23.2063 12.842 23.1257 12.7407 23.0211 12.6692C22.9166 12.5977 22.7929 12.5595 22.6662 12.5595C22.5396 12.5595 22.4159 12.5977 22.3113 12.6692C22.2067 12.7407 22.1262 12.842 22.0802 12.96L21.8757 13.4796C21.8444 13.5602 21.7968 13.6333 21.7358 13.6945C21.6749 13.7557 21.6019 13.8036 21.5215 13.8352L21.0031 14.0409C20.8855 14.0878 20.7846 14.1689 20.7135 14.2737C20.6424 14.3786 20.6044 14.5023 20.6044 14.6289C20.6044 14.7556 20.6424 14.8793 20.7135 14.9842C20.7846 15.089 20.8855 15.1701 21.0031 15.2169L21.5215 15.4214C21.6843 15.4865 21.8119 15.6142 21.8757 15.7782L22.0802 16.2979C22.2898 16.8318 23.0426 16.8318 23.2523 16.2979L23.4567 15.7769C23.488 15.6964 23.5356 15.6233 23.5966 15.5621C23.6576 15.5009 23.7306 15.453 23.811 15.4214L24.3293 15.2169C24.4469 15.1701 24.5478 15.089 24.6189 14.9842C24.69 14.8793 24.728 14.7556 24.728 14.6289C24.728 14.5023 24.69 14.3786 24.6189 14.2737C24.5478 14.1689 24.4469 14.0878 24.3293 14.0409L23.811 13.8352C23.7306 13.8036 23.6576 13.7557 23.5966 13.6945C23.5356 13.6333 23.488 13.5602 23.4567 13.4796L23.2523 12.96Z" stroke="#5D5D64"/>
</svg>
