<svg width="36" height="36" viewBox="0 0 36 36" fill="none" xmlns="http://www.w3.org/2000/svg">
<path fill-rule="evenodd" clip-rule="evenodd" d="M10.1866 14.5512C10.1866 10.236 13.6848 6.73779 18 6.73779C22.3152 6.73779 25.8134 10.236 25.8134 14.5512V19.558L28 25.441H8L10.1866 19.558V14.5512ZM18 8.42711C14.6177 8.42711 11.8759 11.169 11.8759 14.5512V19.8618L10.4301 23.7517H25.5699L24.1241 19.8618V14.5512C24.1241 11.169 21.3822 8.42711 18 8.42711Z" fill="#5D5D64"/>
<path fill-rule="evenodd" clip-rule="evenodd" d="M13.5901 24.8512V24.5967H15.2794V24.8512C15.2794 26.3544 16.4979 27.5729 18.0011 27.5729C19.5042 27.5729 20.7228 26.3544 20.7228 24.8512V24.5967H22.4121V24.8512C22.4121 27.2873 20.4372 29.2622 18.0011 29.2622C15.565 29.2622 13.5901 27.2873 13.5901 24.8512Z" fill="#5D5D64"/>
</svg>
