<svg width="36" height="36" viewBox="0 0 36 36" fill="none" xmlns="http://www.w3.org/2000/svg">
<path fill-rule="evenodd" clip-rule="evenodd" d="M18.0002 13.9492C15.7632 13.9492 13.9498 15.7627 13.9498 17.9997C13.9498 20.2367 15.7632 22.0502 18.0002 22.0502C20.2372 22.0502 22.0507 20.2367 22.0507 17.9997C22.0507 15.7627 20.2372 13.9492 18.0002 13.9492ZM11.8815 17.9997C11.8815 14.6204 14.6209 11.8809 18.0002 11.8809C21.3795 11.8809 24.119 14.6204 24.119 17.9997C24.119 21.379 21.3795 24.1184 18.0002 24.1184C14.6209 24.1184 11.8815 21.379 11.8815 17.9997Z" fill="#5D5D64"/>
<path fill-rule="evenodd" clip-rule="evenodd" d="M14.7608 4L18.0009 6.54933L21.2409 4L28.5064 8.19473L27.9187 12.2752L31.7441 13.8055V22.195L27.9173 23.7259L28.5049 27.8055L21.2394 32.0003L18.0009 29.4521L14.7623 32.0003L7.4968 27.8055L8.08431 23.7266L4.2558 22.195V13.8055L8.08293 12.2745L7.49531 8.19473L14.7608 4ZM9.7421 9.28581L10.3621 13.5904L6.32409 15.2058V20.7947L10.3635 22.4107L9.74359 26.7145L14.5838 29.509L18.0009 26.8204L21.4179 29.509L26.2581 26.7145L25.6381 22.41L29.6758 20.7947V15.2058L25.6395 13.5911L26.2596 9.28581L21.4194 6.49132L18.0009 9.18109L14.5823 6.49132L9.7421 9.28581Z" fill="#5D5D64"/>
</svg>
