<svg width="16" height="16" viewBox="0 0 16 16" fill="none" xmlns="http://www.w3.org/2000/svg">
<path fill-rule="evenodd" clip-rule="evenodd" d="M10.3041 6.39656L6.40233 10.2983L5.69522 9.59123L9.59699 5.68945L10.3041 6.39656Z" fill="#9999A0"/>
<path fill-rule="evenodd" clip-rule="evenodd" d="M6.39981 5.68823L10.3042 9.59341L9.59699 10.3004L5.69263 6.39527L6.39981 5.68823Z" fill="#9999A0"/>
<path fill-rule="evenodd" clip-rule="evenodd" d="M1.33334 7.99992C1.33334 4.31802 4.31811 1.33325 8.00001 1.33325C11.6819 1.33325 14.6667 4.31802 14.6667 7.99992C14.6667 11.6818 11.6819 14.6666 8.00001 14.6666C4.31811 14.6666 1.33334 11.6818 1.33334 7.99992ZM8.00001 2.33325C4.8704 2.33325 2.33334 4.8703 2.33334 7.99992C2.33334 11.1295 4.8704 13.6666 8.00001 13.6666C11.1296 13.6666 13.6667 11.1295 13.6667 7.99992C13.6667 4.8703 11.1296 2.33325 8.00001 2.33325Z" fill="#9999A0"/>
</svg>
