<svg width="16" height="16" viewBox="0 0 16 16" fill="none" xmlns="http://www.w3.org/2000/svg">
<path fill-rule="evenodd" clip-rule="evenodd" d="M4.31351 1.37964L6.88238 4.90827L5.75397 6.86799C5.79409 6.98628 5.85857 7.15659 5.95463 7.35929C6.15051 7.77258 6.47427 8.31332 6.98424 8.82329C7.52446 9.36351 8.09771 9.71771 8.53643 9.93653C8.75468 10.0454 8.93778 10.1198 9.06409 10.1664L11.0182 9.0412L14.6408 11.7125L14.4294 12.0902C13.8241 13.1717 13.0514 13.9444 11.9698 14.5498L11.8686 14.6065L11.7526 14.6118C8.56117 14.7579 5.81693 13.0224 3.97011 10.8744C3.04355 9.79674 2.32737 8.59885 1.88163 7.44584C1.43926 6.30154 1.24729 5.15908 1.42506 4.20857L1.44064 4.12525L1.48328 4.05199C2.09477 3.00124 2.88422 2.21797 3.93019 1.60447L4.31351 1.37964ZM9.11808 10.7014C8.98838 11.1746 8.98823 11.1746 8.98808 11.1745L8.98702 11.1742L8.98517 11.1737L8.98006 11.1723L8.96421 11.1677C8.9512 11.1638 8.93334 11.1584 8.91099 11.1513C8.8663 11.1371 8.80359 11.1161 8.72574 11.0875C8.57016 11.0301 8.35329 10.9417 8.09846 10.8146C7.58996 10.561 6.92282 10.1496 6.29039 9.51713C5.68309 8.90983 5.2998 8.26876 5.06793 7.77954C4.95176 7.53442 4.87275 7.32564 4.82214 7.17553C4.7968 7.1004 4.77851 7.03975 4.76618 6.99634C4.76001 6.97463 4.75533 6.9572 4.752 6.94441L4.748 6.92873L4.74673 6.92357L4.74627 6.92167L4.74608 6.92089C4.74605 6.92073 4.74593 6.92023 5.2232 6.80656L4.74593 6.92023L4.70077 6.73064L5.71412 4.97074L4.05196 2.68757C3.35809 3.16004 2.81716 3.7343 2.37567 4.47054C2.26825 5.16622 2.40614 6.08132 2.79687 7.09202C3.19969 8.13401 3.85574 9.23628 4.71416 10.2347C6.41337 12.211 8.84542 13.7171 11.5914 13.6359C12.3358 13.2021 12.8929 12.6792 13.3501 11.9799L10.952 10.2116L9.18564 11.2287L8.98808 11.1745L9.11808 10.7014Z" fill="#9999A0"/>
</svg>
