<svg width="11" height="11" viewBox="0 0 11 11" fill="none" xmlns="http://www.w3.org/2000/svg">
<path d="M5.03677 10.0735C3.66886 10.0735 3.49733 10.0677 2.9601 10.0432C2.424 10.0188 2.05787 9.9336 1.73748 9.80911C1.40627 9.68039 1.12538 9.50816 0.845378 9.22815C0.56536 8.94815 0.393126 8.66723 0.264423 8.33602C0.139904 8.01565 0.054777 7.64952 0.0302901 7.11341C0.0057881 6.57618 0 6.40466 0 5.03674C0 3.66886 0.0057881 3.49733 0.0302901 2.96011C0.054777 2.424 0.139904 2.05787 0.264423 1.7375C0.393141 1.40629 0.565375 1.1254 0.845378 0.845364C1.1254 0.565361 1.40627 0.393126 1.73748 0.264408C2.05787 0.139919 2.424 0.0547781 2.9601 0.0303059C3.49733 0.00580406 3.66886 0 5.03677 0C6.40465 0 6.57618 0.00580406 7.11341 0.0303059C7.64952 0.0547628 8.01565 0.139919 8.33602 0.264408C8.66723 0.393126 8.94812 0.565361 9.22815 0.845364C9.50816 1.1254 9.68039 1.40629 9.80911 1.7375C9.9336 2.05787 10.0188 2.424 10.0432 2.96011C10.0677 3.49733 10.0735 3.66886 10.0735 5.03674C10.0735 6.40466 10.0677 6.57618 10.0432 7.11341C10.0188 7.64952 9.9336 8.01565 9.80911 8.33602C9.68039 8.66723 9.50816 8.94815 9.22815 9.22815C8.94812 9.50816 8.66723 9.68039 8.33602 9.80911C8.01565 9.9336 7.64952 10.0188 7.11341 10.0432C6.57618 10.0677 6.40465 10.0735 5.03677 10.0735ZM5.03677 9.166C6.38162 9.166 6.54093 9.16086 7.07204 9.13662C7.56313 9.11424 7.82982 9.03218 8.00728 8.96321C8.24241 8.87183 8.41019 8.76269 8.58642 8.58644C8.76269 8.41019 8.87183 8.24239 8.96321 8.0073C9.03218 7.82982 9.11423 7.56312 9.13662 7.07204C9.16086 6.54093 9.166 6.38162 9.166 5.03676C9.166 3.69189 9.16086 3.53259 9.13662 3.00148C9.11423 2.51039 9.03218 2.2437 8.96321 2.06623C8.87183 1.83111 8.76269 1.66333 8.58642 1.48709C8.41019 1.31083 8.24239 1.20169 8.0073 1.11031C7.82982 1.04133 7.56311 0.959282 7.07204 0.936893C6.54102 0.912662 6.38173 0.907517 5.03676 0.907517C3.69179 0.907517 3.53253 0.912662 3.00148 0.936909C2.51039 0.959281 2.2437 1.04133 2.06623 1.11031C1.83111 1.20169 1.66333 1.31083 1.48709 1.48709C1.31084 1.66333 1.20169 1.83113 1.11031 2.06622C1.04133 2.2437 0.959295 2.5104 0.936893 3.00148C0.912661 3.53259 0.907517 3.69189 0.907517 5.03676C0.907517 6.38162 0.912661 6.54093 0.936893 7.07204C0.959295 7.56313 1.04133 7.82982 1.11031 8.00728C1.20169 8.24241 1.31084 8.41019 1.48708 8.58642C1.66333 8.76269 1.83112 8.87183 2.06622 8.96321C2.2437 9.03218 2.5104 9.11424 3.00148 9.13662C3.53259 9.16086 3.69189 9.166 5.03676 9.166" fill="#9999A0"/>
<path d="M5.03679 3.35788C4.10952 3.35788 3.35785 4.10956 3.35785 5.03679C3.35785 5.96406 4.10952 6.71573 5.03679 6.71573C5.96403 6.71573 6.7157 5.96406 6.7157 5.03679C6.7157 4.10956 5.96403 3.35788 5.03679 3.35788ZM5.03679 7.62325C3.60831 7.62325 2.45033 6.46527 2.45033 5.03679C2.45033 3.60835 3.60831 2.45037 5.03679 2.45037C6.46524 2.45037 7.62322 3.60835 7.62322 5.03679C7.62322 6.46527 6.46524 7.62325 5.03679 7.62325ZM8.32983 7.72544C8.32983 7.39162 8.05921 7.12104 7.72541 7.12104C7.39162 7.12104 7.121 7.39162 7.121 7.72544C7.121 8.05925 7.39162 8.32986 7.72541 8.32986C8.05921 8.32986 8.32983 8.05925 8.32983 7.72544Z" fill="#9999A0"/>
</svg>
