<svg width="16" height="16" viewBox="0 0 16 16" fill="none" xmlns="http://www.w3.org/2000/svg">
<path fill-rule="evenodd" clip-rule="evenodd" d="M7.97736 2.33325C6.62565 2.33325 5.53 3.42842 5.53 4.77974C5.53 6.13106 6.62565 7.22623 7.97736 7.22623C9.3281 7.22623 10.4238 6.13116 10.4238 4.77974C10.4238 3.42832 9.3281 2.33325 7.97736 2.33325ZM4.53 4.77974C4.53 2.87575 6.07375 1.33325 7.97736 1.33325C9.88019 1.33325 11.4238 2.87584 11.4238 4.77974C11.4238 6.68364 9.88019 8.22623 7.97736 8.22623C6.07375 8.22623 4.53 6.68373 4.53 4.77974Z" fill="#9999A0"/>
<path fill-rule="evenodd" clip-rule="evenodd" d="M3.91933 12.7899C5.10865 13.4147 6.49298 13.6704 7.99878 13.6667H8.00122C9.50699 13.6704 10.8913 13.4147 12.0806 12.7899C11.3976 11.1594 9.87305 10.3744 8.00128 10.3792H7.99872C6.12461 10.3744 4.60248 11.1575 3.91933 12.7899ZM8 9.37917C5.66704 9.3736 3.58907 10.4587 2.82801 12.8653L2.70984 13.239L3.04448 13.443C4.51406 14.3389 6.22249 14.6709 8 14.6667C9.77751 14.6709 11.4859 14.3389 12.9555 13.443L13.2901 13.239L13.172 12.8653C12.4117 10.461 10.3307 9.37361 8 9.37917Z" fill="#9999A0"/>
</svg>
