<svg width="16" height="16" viewBox="0 0 16 16" fill="none" xmlns="http://www.w3.org/2000/svg">
<path fill-rule="evenodd" clip-rule="evenodd" d="M2.9683 5.77903C2.9683 3.00009 5.22107 0.747314 8.00002 0.747314C10.779 0.747314 13.0317 3.00009 13.0317 5.77903V9.00334L14.4399 12.7919H1.56018L2.9683 9.00334V5.77903ZM8.00002 1.83521C5.8219 1.83521 4.05619 3.60092 4.05619 5.77903V9.19898L3.12513 11.704H12.8749L11.9438 9.19898V5.77903C11.9438 3.60092 10.1781 1.83521 8.00002 1.83521Z" fill="#9999A0"/>
<path fill-rule="evenodd" clip-rule="evenodd" d="M5.16013 12.412V12.248H6.24802V12.412C6.24802 13.38 7.03274 14.1647 8.00074 14.1647C8.96874 14.1647 9.75346 13.38 9.75346 12.412V12.248H10.8414V12.412C10.8414 13.9808 9.56957 15.2526 8.00074 15.2526C6.43191 15.2526 5.16013 13.9808 5.16013 12.412Z" fill="#9999A0"/>
</svg>
