<svg width="16" height="16" viewBox="0 0 16 16" fill="none" xmlns="http://www.w3.org/2000/svg">
<path fill-rule="evenodd" clip-rule="evenodd" d="M5.76954 14.8856C6.92425 15.1153 8.12113 14.9974 9.20885 14.5469C10.2966 14.0963 11.2262 13.3334 11.8803 12.3544C12.5344 11.3755 12.8835 10.2246 12.8835 9.0473V8.5223H7.45585V3.0946L6.93085 3.0946C5.75352 3.0946 4.60262 3.44372 3.62371 4.09781C2.64479 4.7519 1.88182 5.68159 1.43127 6.7693C0.980729 7.85701 0.862845 9.0539 1.09253 10.2086C1.32222 11.3633 1.88916 12.424 2.72166 13.2565C3.55416 14.089 4.61483 14.6559 5.76954 14.8856ZM8.80703 13.5768C7.91118 13.9479 6.92541 14.045 5.97438 13.8558C5.02335 13.6666 4.14978 13.1997 3.46412 12.514C2.77847 11.8284 2.31153 10.9548 2.12236 10.0038C1.93319 9.05274 2.03028 8.06697 2.40135 7.17112C2.77243 6.27527 3.40082 5.50958 4.20706 4.97086C4.867 4.5299 5.62184 4.25723 6.40585 4.17279V9.5723H11.8054C11.7209 10.3563 11.4482 11.1111 11.0073 11.7711C10.4686 12.5773 9.70288 13.2057 8.80703 13.5768Z" fill="#9999A0"/>
<path fill-rule="evenodd" clip-rule="evenodd" d="M8.54413 7.47778L15.0218 7.47778L15.0218 6.95278C15.0218 5.37403 14.3947 3.85994 13.2783 2.74359C12.162 1.62724 10.6479 1.00008 9.06913 1.00008H8.54413L8.54413 7.47778ZM9.59413 6.42778L9.59413 2.07826C10.7014 2.19748 11.741 2.69122 12.5359 3.48605C13.3307 4.28089 13.8244 5.32054 13.9436 6.42778L9.59413 6.42778Z" fill="#9999A0"/>
</svg>
